<?xml version="1.0" standalone="no"?>
<!DOCTYPE svg PUBLIC "-//W3C//DTD SVG 20010904//EN"
 "http://www.w3.org/TR/2001/REC-SVG-20010904/DTD/svg10.dtd">
<svg version="1.0" xmlns="http://www.w3.org/2000/svg"
 width="121.000000pt" height="124.000000pt" viewBox="0 0 121.000000 124.000000"
 preserveAspectRatio="xMidYMid meet">

<g transform="translate(0.000000,124.000000) scale(0.100000,-0.100000)"
fill="#000000" stroke="none">
<path d="M550 1146 c-75 -20 -138 -57 -189 -111 -89 -94 -128 -200 -138 -379
l-6 -109 34 25 c57 43 97 59 164 65 70 6 147 -12 197 -49 l28 -19 0 263 c0
145 4 269 9 277 5 8 16 11 26 8 15 -6 16 -41 13 -394 -3 -339 -5 -392 -20
-418 -83 -152 -315 -134 -363 28 -24 81 1 167 48 167 26 0 47 -17 47 -38 0 -7
-11 -30 -25 -50 -33 -49 -32 -75 7 -118 52 -56 135 -65 203 -20 58 38 74 166
31 241 -64 109 -268 107 -342 -2 -68 -101 -20 -278 97 -358 78 -53 147 -70
289 -70 121 0 127 1 195 33 166 79 254 250 255 495 0 280 -108 465 -308 527
-73 23 -182 25 -252 6z"/>
</g>
</svg>
