<?xml version="1.0" standalone="no"?>
<!DOCTYPE svg PUBLIC "-//W3C//DTD SVG 20010904//EN"
 "http://www.w3.org/TR/2001/REC-SVG-20010904/DTD/svg10.dtd">
<svg version="1.0" xmlns="http://www.w3.org/2000/svg"
width="121.000000pt" height="124.000000pt" viewBox="0 0 121.000000 124.000000"
 preserveAspectRatio="xMidYMid meet">

<g transform="translate(0.000000,117.000000) scale(0.100000,-0.100000)"
fill="#000000" stroke="none">
<path d="M585 1118 c-2 -7 -9 -31 -14 -53 -24 -94 -121 -217 -236 -300 -49
-35 -185 -109 -238 -128 -9 -3 -9 -8 -1 -17 9 -9 28 -5 85 19 41 17 77 31 81
31 5 0 7 -127 6 -282 l-3 -283 -80 -3 c-86 -4 -90 -5 -80 -21 4 -8 113 -11
336 -11 286 0 329 2 329 15 0 8 -7 16 -15 16 -8 1 -19 3 -25 4 -5 1 -35 3 -65
4 l-55 1 0 504 c0 328 -4 507 -10 511 -6 3 -12 0 -15 -7z"/>
</g>
</svg>
