<?xml version="1.0" standalone="no"?>
<!DOCTYPE svg PUBLIC "-//W3C//DTD SVG 20010904//EN"
 "http://www.w3.org/TR/2001/REC-SVG-20010904/DTD/svg10.dtd">
<svg version="1.0" xmlns="http://www.w3.org/2000/svg"
width="121.000000pt" height="124.000000pt" viewBox="0 0 121.000000 124.000000"
 preserveAspectRatio="xMidYMid meet">

<g transform="translate(0.000000,117.000000) scale(0.100000,-0.100000)"
fill="#000000" stroke="none">
<path d="M367 1119 c-64 -13 -150 -52 -196 -88 -46 -36 -89 -114 -97 -175 -9
-62 31 -146 87 -183 73 -48 185 -44 246 10 116 102 61 277 -87 277 -52 0 -83
-18 -106 -61 -13 -25 -20 -30 -47 -27 -46 4 -48 39 -5 82 122 122 358 35 358
-131 0 -111 -63 -189 -196 -243 -115 -46 -166 -86 -200 -156 -26 -54 -28 -68
-32 -211 -4 -131 -2 -153 11 -153 15 0 27 28 27 67 0 64 50 103 132 103 57 0
83 -13 215 -107 137 -96 310 -100 392 -7 54 62 63 98 68 287 5 165 5 167 -16
167 -18 0 -21 -6 -21 -44 0 -33 -6 -52 -23 -72 -37 -43 -104 -44 -252 -4 -106
28 -131 32 -211 28 -72 -4 -101 -10 -134 -29 -58 -32 -97 -84 -112 -147 -7
-29 -18 -52 -25 -52 -14 0 -16 9 -13 55 4 53 31 104 78 145 62 55 130 74 252
70 225 -8 282 -5 335 19 63 28 90 54 123 116 24 44 27 61 27 150 0 84 -4 107
-22 141 -38 72 -114 129 -212 161 -56 18 -277 26 -344 12z"/>
</g>
</svg>
