<?xml version="1.0" standalone="no"?>
<!DOCTYPE svg PUBLIC "-//W3C//DTD SVG 20010904//EN"
 "http://www.w3.org/TR/2001/REC-SVG-20010904/DTD/svg10.dtd">
<svg version="1.0" xmlns="http://www.w3.org/2000/svg"
width="121.000000pt" height="124.000000pt" viewBox="0 0 121.000000 124.000000"
 preserveAspectRatio="xMidYMid meet">

<g transform="translate(0.000000,118.000000) scale(0.100000,-0.100000)"
fill="#000000" stroke="none">
<path d="M372 1115 c-170 -37 -272 -138 -272 -269 0 -73 22 -120 73 -157 102
-74 275 -29 308 81 31 102 -38 190 -149 190 -53 0 -84 -18 -96 -58 -15 -46
-86 -46 -86 -1 0 30 59 85 105 98 208 58 362 -140 243 -311 -27 -40 -102 -71
-183 -78 -54 -4 -71 -9 -73 -21 -3 -14 9 -17 70 -21 137 -7 213 -68 225 -180
7 -72 -9 -118 -57 -162 -84 -76 -233 -75 -301 2 -39 44 -36 76 8 80 28 3 34
-1 52 -36 23 -46 35 -52 100 -52 90 0 157 72 148 159 -6 52 -31 89 -82 118
-119 67 -273 13 -305 -107 -25 -94 34 -216 133 -274 66 -39 186 -66 292 -66
174 0 279 34 366 119 66 64 85 114 76 200 -12 114 -91 187 -216 198 -48 5 -61
9 -61 22 0 13 10 18 42 20 126 7 208 102 208 240 0 57 -36 135 -81 178 -42 39
-128 79 -199 93 -72 14 -212 11 -288 -5z"/>
</g>
</svg>
