<?xml version="1.0" standalone="no"?>
<!DOCTYPE svg PUBLIC "-//W3C//DTD SVG 20010904//EN"
 "http://www.w3.org/TR/2001/REC-SVG-20010904/DTD/svg10.dtd">
<svg version="1.0" xmlns="http://www.w3.org/2000/svg"
width="121.000000pt" height="124.000000pt" viewBox="0 0 121.000000 124.000000"
 preserveAspectRatio="xMidYMid meet">

<g transform="translate(0.000000,113.000000) scale(0.100000,-0.100000)"
fill="#000000" stroke="none">
<path d="M508 1106 c-133 -48 -174 -138 -188 -416 -5 -96 -13 -189 -18 -205
-29 -96 -76 -143 -165 -170 -22 -6 -43 -17 -45 -23 -3 -9 43 -12 170 -13 95
-1 182 -2 193 -3 18 -1 20 -8 20 -91 l0 -90 -45 -2 c-62 -2 -60 -1 -60 -18 0
-13 38 -15 281 -15 256 0 280 1 277 17 -2 12 -15 16 -53 17 l-50 1 0 90 0 90
50 1 c38 1 51 5 53 17 3 14 -6 17 -52 17 l-56 0 0 160 0 160 -62 -50 c-35 -28
-111 -74 -170 -103 l-107 -52 -1 -57 0 -58 -132 0 -133 0 74 41 c135 73 358
226 419 287 100 100 143 229 112 342 -15 55 -70 111 -127 128 -52 16 -138 15
-185 -2z"/>
</g>
</svg>
