<?xml version="1.0" standalone="no"?>
<!DOCTYPE svg PUBLIC "-//W3C//DTD SVG 20010904//EN"
 "http://www.w3.org/TR/2001/REC-SVG-20010904/DTD/svg10.dtd">
<svg version="1.0" xmlns="http://www.w3.org/2000/svg"
width="121.000000pt" height="124.000000pt" viewBox="0 0 121.000000 124.000000"
 preserveAspectRatio="xMidYMid meet">

<g transform="translate(0.000000,117.000000) scale(0.100000,-0.100000)"
fill="#000000" stroke="none">
<path d="M647 1129 c-51 -12 -100 -38 -176 -94 -119 -88 -189 -105 -252 -62
-41 28 -59 60 -59 110 0 30 -4 37 -20 37 -20 0 -20 -7 -20 -277 0 -153 4 -284
9 -292 7 -11 17 -10 56 9 58 28 166 38 221 20 100 -32 149 -107 142 -220 -4
-80 -36 -131 -102 -161 -113 -51 -284 4 -274 88 3 24 8 28 33 28 20 0 33 -7
41 -22 33 -67 87 -86 160 -58 66 25 94 67 94 141 0 96 -51 155 -147 170 -140
21 -253 -81 -240 -216 6 -69 23 -103 77 -157 79 -80 187 -114 360 -114 163 0
262 29 345 103 71 61 103 167 84 272 -25 140 -107 218 -265 251 -179 38 -416
1 -532 -81 l-22 -16 0 176 c0 147 2 176 15 176 8 0 17 -14 21 -37 9 -49 36
-102 66 -130 63 -59 132 -57 432 7 171 36 229 13 242 -99 5 -44 11 -61 21 -61
13 0 14 26 11 173 -3 147 -7 178 -24 217 -49 107 -160 151 -297 119z"/>
</g>
</svg>
