<?xml version="1.0" standalone="no"?>
<!DOCTYPE svg PUBLIC "-//W3C//DTD SVG 20010904//EN"
 "http://www.w3.org/TR/2001/REC-SVG-20010904/DTD/svg10.dtd">
<svg version="1.0" xmlns="http://www.w3.org/2000/svg"
width="121.000000pt" height="124.000000pt" viewBox="0 0 121.000000 124.000000"
 preserveAspectRatio="xMidYMid meet">

<g transform="translate(0.000000,119.000000) scale(0.100000,-0.100000)"
fill="#000000" stroke="none">
<path d="M455 1128 c-179 -34 -335 -190 -380 -379 -17 -75 -20 -255 -4 -331
28 -132 110 -244 225 -305 77 -41 138 -55 248 -55 168 0 293 63 351 177 27 52
30 68 30 149 0 74 -4 98 -22 131 -64 119 -201 175 -347 141 -37 -9 -70 -16
-73 -16 -3 0 -3 62 -1 138 4 165 21 214 88 258 99 66 271 27 211 -48 l-20 -23
-43 23 c-51 26 -90 28 -128 6 -96 -57 -82 -212 24 -263 50 -25 134 -28 175 -6
133 68 130 282 -6 362 -81 47 -210 64 -328 41z m65 -783 c0 -238 -1 -245 -20
-245 -19 0 -20 7 -20 238 0 131 3 242 7 245 3 4 12 7 20 7 10 0 13 -48 13
-245z"/>
</g>
</svg>
