<?xml version="1.0" standalone="no"?>
<!DOCTYPE svg PUBLIC "-//W3C//DTD SVG 20010904//EN"
 "http://www.w3.org/TR/2001/REC-SVG-20010904/DTD/svg10.dtd">
<svg version="1.0" xmlns="http://www.w3.org/2000/svg"
width="121.000000pt" height="124.000000pt" viewBox="0 0 121.000000 124.000000"
 preserveAspectRatio="xMidYMid meet">

<g transform="translate(0.000000,117.000000) scale(0.100000,-0.100000)"
fill="#000000" stroke="none">
<path d="M211 1106 c-56 -19 -94 -56 -122 -120 -20 -44 -23 -73 -27 -213 -4
-161 -4 -163 17 -163 17 0 21 6 21 35 0 55 24 92 68 104 52 15 56 15 183 -18
153 -40 204 -45 285 -32 99 17 143 44 177 110 15 30 27 64 27 75 0 33 17 53
31 39 10 -10 10 -24 0 -65 -25 -115 -74 -157 -239 -205 -200 -58 -307 -134
-369 -262 -23 -47 -28 -69 -27 -131 0 -82 13 -117 61 -162 41 -40 100 -60 169
-60 107 -1 189 53 215 142 11 35 9 49 -16 122 -31 91 -35 160 -12 205 16 30
96 109 158 156 20 15 49 51 65 79 27 51 29 60 32 206 4 129 2 152 -11 152 -9
0 -16 -14 -20 -42 -7 -53 -34 -89 -80 -107 -60 -22 -116 -7 -209 56 -45 31
-105 67 -135 80 -67 31 -178 39 -242 19z"/>
</g>
</svg>
