<?xml version="1.0" standalone="no"?>
<!DOCTYPE svg PUBLIC "-//W3C//DTD SVG 20010904//EN"
 "http://www.w3.org/TR/2001/REC-SVG-20010904/DTD/svg10.dtd">
<svg version="1.0" xmlns="http://www.w3.org/2000/svg"
width="121.000000pt" height="124.000000pt" viewBox="0 0 121.000000 124.000000"
 preserveAspectRatio="xMidYMid meet">

<g transform="translate(0.000000,118.000000) scale(0.100000,-0.100000)"
fill="#000000" stroke="none">
<path d="M331 1135 c-186 -42 -297 -168 -275 -312 18 -124 67 -167 224 -197
155 -29 224 -100 223 -230 0 -121 -61 -198 -171 -219 -129 -25 -258 97 -237
224 12 68 61 109 93 77 19 -19 14 -48 -13 -80 -88 -105 76 -230 206 -156 86
48 106 195 37 274 -40 45 -86 64 -160 64 -136 0 -221 -82 -220 -215 1 -138 77
-227 235 -277 79 -25 283 -27 370 -4 120 33 210 95 247 172 33 66 26 175 -14
232 -35 51 -108 89 -188 98 -34 4 -58 12 -58 18 0 7 29 17 66 23 79 14 128 48
162 113 31 62 31 167 -2 230 -32 63 -111 124 -193 150 -89 28 -244 35 -332 15z
m157 -268 c2 -232 2 -237 -18 -237 -19 0 -20 6 -20 233 0 129 3 237 7 241 23
23 28 -13 31 -237z"/>
</g>
</svg>
