<?xml version="1.0" standalone="no"?>
<!DOCTYPE svg PUBLIC "-//W3C//DTD SVG 20010904//EN"
 "http://www.w3.org/TR/2001/REC-SVG-20010904/DTD/svg10.dtd">
<svg version="1.0" xmlns="http://www.w3.org/2000/svg"
width="121.000000pt" height="124.000000pt" viewBox="0 0 121.000000 124.000000"
 preserveAspectRatio="xMidYMid meet">

<g transform="translate(0.000000,116.000000) scale(0.100000,-0.100000)"
fill="#000000" stroke="none">
<path d="M398 1135 c-165 -42 -253 -139 -266 -290 -9 -122 42 -221 142 -272
65 -33 185 -42 260 -19 l48 15 -4 -142 c-5 -148 -15 -189 -58 -234 -35 -38
-82 -57 -141 -57 -85 -1 -132 31 -109 75 14 25 44 24 87 -2 95 -59 206 49 172
168 -33 120 -211 161 -302 69 -87 -86 -67 -248 40 -324 76 -54 264 -70 386
-32 77 24 173 85 223 143 50 59 101 169 115 251 18 104 7 296 -20 368 -50 129
-149 228 -269 268 -86 28 -225 35 -304 15z m180 -273 c2 -237 2 -242 -18 -242
-19 0 -20 6 -21 218 -2 268 -1 278 24 270 9 -4 13 -64 15 -246z"/>
</g>
</svg>
