<?xml version="1.0" standalone="no"?>
<!DOCTYPE svg PUBLIC "-//W3C//DTD SVG 20010904//EN"
 "http://www.w3.org/TR/2001/REC-SVG-20010904/DTD/svg10.dtd">
<svg version="1.0" xmlns="http://www.w3.org/2000/svg"
 width="1320.000000pt" height="540.000000pt" viewBox="0 0 1320.000000 540.000000"
 preserveAspectRatio="xMidYMid meet">

<g transform="translate(0.000000,540.000000) scale(0.100000,-0.100000)"
fill="#000000" stroke="none">
<path d="M6933 4576 c-85 -21 -162 -65 -234 -133 -117 -111 -175 -229 -186
-378 -7 -99 21 -222 70 -304 40 -69 137 -167 200 -204 157 -92 353 -100 518
-21 85 41 208 158 251 240 77 144 79 365 4 512 -61 121 -188 230 -316 273 -81
26 -233 34 -307 15z"/>
<path d="M6926 2165 c-91 -23 -174 -73 -251 -150 -224 -224 -226 -553 -5 -775
118 -119 227 -165 390 -165 84 0 119 5 173 24 172 59 328 225 366 391 26 113
8 288 -40 383 -44 87 -154 199 -238 242 -114 58 -280 79 -395 50z"/>
</g>
</svg>
